<svg width="65" height="65" viewBox="0 0 65 65" fill="none" xmlns="http://www.w3.org/2000/svg">
<g id="Front development (traced)" opacity="0.88">
<g id="Black">
<path id="Vector" d="M51.7165 2.87401C51.1368 3.00778 49.6208 4.16708 48.3723 5.46015L46.0983 7.86793L27.817 8.00169C7.39548 8.13546 7.93054 8.09087 5.43358 11.3458L4.1851 12.951L4.05134 30.9202C3.91757 48.176 3.96216 48.9785 4.80934 50.6729C5.87947 52.724 7.48466 53.9725 9.98161 54.6859C12.434 55.3547 52.5637 55.3547 55.016 54.6859C57.513 53.9725 59.1182 52.724 60.1883 50.6729C61.0355 48.9785 61.0801 48.176 60.9463 30.9648C60.8125 13.8874 60.7679 12.9956 59.9208 11.7025C59.3857 10.9445 59.029 9.65147 59.029 8.58134C58.9844 4.74673 55.5957 2.07142 51.7165 2.87401ZM55.7294 6.08439C57.1117 7.51122 57.29 8.49217 56.4429 9.96359C55.8632 10.9445 47.5252 18.1679 46.9455 18.1679C46.455 18.1679 43.6459 15.4034 43.6459 14.9575C43.6459 14.3333 50.8247 5.95062 51.8502 5.37097C53.3217 4.52379 54.3026 4.70214 55.7294 6.08439ZM43.7797 10.7662C42.5758 12.7281 40.9706 14.0211 38.9642 14.6008C37.2698 15.0467 36.1551 15.8047 34.1932 17.8112L31.607 20.3973H18.6764H5.7457V18.0341C5.7457 14.9575 7.21712 12.0592 9.31279 10.9445C10.7396 10.2311 12.2556 10.1419 27.5049 10.1419C41.3719 10.1419 44.0918 10.2311 43.7797 10.7662ZM59.2519 18.0341V20.3973H56.7996H54.3472V17.7666C54.3472 15.225 54.4364 15.0467 56.0416 13.709L57.6913 12.3268L58.4493 14.0211C58.8952 14.9575 59.2519 16.7856 59.2519 18.0341ZM43.6014 18.3462C45.2065 19.996 45.4741 20.5311 45.2511 21.4674C44.8052 23.2956 42.4421 25.6142 40.2126 26.4613C38.4737 27.1302 37.894 27.1748 36.1551 26.6843C33.8811 26.1046 32.4988 25.0791 32.4988 24.0982C32.4988 22.9834 36.5118 18.1679 38.2061 17.2761C40.6585 16.0276 41.4611 16.1614 43.6014 18.3462ZM52.1178 18.8367C52.1178 20.3973 52.0732 20.3973 50.2451 20.3973L48.3277 20.3527L50.0667 18.8367C51.0476 17.9895 51.8948 17.2761 51.984 17.2761C52.0286 17.2761 52.1178 17.9895 52.1178 18.8367ZM30.4477 23.2956C30.0019 25.1237 31.0274 26.9518 33.1231 27.9774C35.62 29.1812 39.9451 29.1812 42.2637 28.0219C44.0918 27.041 46.4996 24.544 46.9901 23.1172C47.213 22.3146 47.6589 22.1808 49.71 22.1808H52.1178V35.2899C52.1178 54.3738 53.9905 52.9469 29.1993 52.9469C12.1219 52.9469 11.3193 52.9023 9.49114 52.0106C8.10889 51.3417 7.35089 50.5837 6.68206 49.2015C5.79029 47.4179 5.7457 46.5262 5.7457 34.7548V22.1808H18.2305H30.7153L30.4477 23.2956ZM59.2519 34.7548C59.2519 46.5262 59.2073 47.4179 58.3156 49.2015C57.3792 51.208 54.7039 52.9469 52.5637 52.9469H51.5381L52.4745 51.966C54.2134 50.0933 54.3472 48.8448 54.3472 35.2899V22.1808H56.7996H59.2519V34.7548Z" fill="#ADAFB3"/>
<path id="Vector_2" d="M11.5422 12.815C10.2045 14.1526 10.3383 16.5158 11.8097 17.6751C13.192 18.7453 13.727 18.8344 15.2876 18.121C16.6699 17.4968 17.4725 15.4011 16.8928 13.9297C16.0902 11.8786 13.1028 11.2544 11.5422 12.815ZM14.9309 14.6431C15.3768 15.4011 13.9054 16.6942 13.2811 16.0699C12.969 15.7578 12.8798 15.2228 13.0136 14.8661C13.3257 14.0635 14.485 13.9297 14.9309 14.6431Z" fill="#ADAFB3"/>
<path id="Vector_3" d="M19.6575 12.6817C17.9631 14.1086 18.3198 17.2298 20.2371 18.0769C21.8423 18.8349 22.3774 18.7458 23.7596 17.6756C26.0782 15.8475 24.7852 11.9237 21.8423 11.9237C21.1289 11.9237 20.148 12.2804 19.6575 12.6817ZM22.5557 14.8666C22.6895 15.2233 22.6003 15.7583 22.2882 16.0705C21.664 16.6947 20.1926 15.4016 20.6384 14.6436C21.0843 13.9302 22.2436 14.064 22.5557 14.8666Z" fill="#ADAFB3"/>
<path id="Vector_4" d="M27.1938 13.0862C25.3211 15.494 26.6142 18.3477 29.6016 18.3477C32.589 18.3477 33.8821 15.494 32.0094 13.0862C31.3405 12.239 30.6717 11.9269 29.6016 11.9269C28.5315 11.9269 27.8626 12.239 27.1938 13.0862ZM30.6271 15.1819C30.8055 16.0736 29.5124 16.6979 28.8436 16.0291C28.1748 15.3602 28.799 14.0672 29.6908 14.2455C30.1367 14.3347 30.5379 14.736 30.6271 15.1819Z" fill="#ADAFB3"/>
<path id="Vector_5" d="M11.7651 32.2113C10.695 33.2368 10.6504 33.5043 10.6504 39.1225C10.6504 44.7407 10.695 45.0082 11.7651 46.0337C12.7906 47.1038 13.0582 47.1484 18.6763 47.1484C24.2945 47.1484 24.562 47.1038 25.5875 46.0337C26.6577 45.0082 26.7023 44.7407 26.7023 39.1225C26.7023 33.5043 26.6577 33.2368 25.5875 32.2113C24.562 31.1412 24.2945 31.0966 18.6763 31.0966C13.0582 31.0966 12.7906 31.1412 11.7651 32.2113ZM24.0269 33.7719C24.785 34.5299 24.9187 35.2433 24.9187 39.0333C24.9187 45.0974 25.0525 44.9636 18.4534 44.8298L13.1028 44.6961L12.969 39.3454C12.8352 32.7463 12.7015 32.8801 18.7655 32.8801C22.5555 32.8801 23.2689 33.0139 24.0269 33.7719Z" fill="#ADAFB3"/>
<path id="Vector_6" d="M30.1367 32.3487C28.9328 33.6863 29.1558 36.2279 30.538 37.298C31.6082 38.1452 32.3216 38.2344 38.2518 38.2344C41.8189 38.2344 45.2077 38.1006 45.7873 37.9668C47.0804 37.6101 48.2397 35.3807 47.8384 34.0876C47.125 31.6353 46.7683 31.5461 38.5194 31.5461C31.6527 31.5461 30.761 31.6353 30.1367 32.3487ZM45.2077 33.9539C45.9211 34.4889 45.9657 34.6673 45.4752 35.2915C44.6726 36.2725 32.4553 36.3617 31.6527 35.3807C31.2514 34.8902 31.296 34.5781 31.8311 34.0431C32.812 33.0621 43.9146 32.9729 45.2077 33.9539Z" fill="#ADAFB3"/>
<path id="Vector_7" d="M30.9395 40.5499C29.6464 41.2633 29.3789 41.7984 29.3789 43.6711C29.3789 46.4356 30.1815 46.7031 38.7871 46.7031C45.6983 46.7031 46.2334 46.6585 46.9914 45.8114C48.0615 44.6521 48.1061 42.0213 47.0806 40.9958C46.4117 40.3716 45.2524 40.2378 39.0546 40.104C34.1499 40.0594 31.5637 40.1932 30.9395 40.5499ZM45.4308 42.9131C46.5009 44.2062 45.4308 44.4737 38.5196 44.4737C33.1243 44.4737 31.6529 44.3399 31.4746 43.8495C30.9395 42.5118 32.188 42.2443 38.5641 42.2443C43.5581 42.2443 44.9849 42.378 45.4308 42.9131Z" fill="#ADAFB3"/>
</g>
</g>
</svg>
